<svg viewBox="0 0 24 24" xmlns="http://www.w3.org/2000/svg"><g stroke-linecap="round" stroke-width="1.5" stroke="#323232" fill="none" stroke-linejoin="round"><path d="M14.67 21H5.99l-.01-.001c-1.66-.01-3-1.35-3-3v-12l0 0c-.01-1.66 1.34-3.01 2.99-3.01h12l-.01 0c1.65-.01 3 1.34 3 3v8.672"/><path d="M17.5 13l-.01 0c2.48-.01 4.5 2.01 4.5 4.49 0 2.48-2.02 4.5-4.5 4.5 -2.49 0-4.5-2.02-4.51-4.5l0 0c-.01-2.49 2.01-4.51 4.49-4.51 0-.001 0-.001 0-.001"/><path d="M21 8L3 8"/><path d="M19 16.75l-1.88 1.875 -1.13-1.125"/><path d="M13.74 11.45h-.01c-.03 0-.05.02-.05.04s.02.04.04.04c.02-.01.04-.03.04-.05v0c0-.03-.03-.05-.05-.05"/><path d="M10.24 11.45l-.001-.001c-.03-.01-.05.02-.05.04 -.01 0 0 0 0 0l-.01-.01c0 .02.02.04.04.04 .02-.01.04-.03.04-.05 -.01-.03-.03-.05-.05-.05 -.01 0-.01 0-.01 0"/><path d="M6.74 11.45l0 0c-.03-.01-.05.02-.05.04 -.01 0-.01 0 0 0l-.01-.01c0 .02.02.04.04.04 .02-.01.04-.03.04-.05 -.01-.03-.03-.05-.05-.05 -.01 0-.01 0-.01 0"/><path d="M10.24 14.45l-.001-.001c-.03-.01-.05.02-.05.04 -.01 0 0 0 0 0l-.01-.01c0 .02.02.04.04.04 .02-.01.04-.03.04-.05 -.01-.03-.03-.05-.05-.05 -.01 0-.01 0-.01 0"/><path d="M6.74 14.45l0 0c-.03-.01-.05.02-.05.04 -.01 0-.01 0 0 0l-.01-.01c0 .02.02.04.04.04 .02-.01.04-.03.04-.05 -.01-.03-.03-.05-.05-.05 -.01 0-.01 0-.01 0"/><path d="M10.24 17.451l-.001-.001c-.03-.01-.05.02-.05.04 -.01 0 0 0 0 0l-.01-.01c0 .02.02.04.04.04 .02-.01.04-.03.04-.05 -.01-.03-.03-.05-.05-.05 -.01 0-.01 0-.01 0"/><path d="M6.74 17.451l0 0c-.03-.01-.05.02-.05.04 -.01 0-.01 0-.001 0l-.01-.01c0 .02.02.04.04.04 .02-.01.04-.03.04-.05 -.01-.03-.03-.05-.05-.05 -.01 0-.01 0-.01 0"/></g><path fill="none" d="M0 0h24v24H0Z"/></svg>