<svg viewBox="0 0 24 24" xmlns="http://www.w3.org/2000/svg"><g stroke-linecap="round" stroke-width="1.5" stroke="#323232" fill="none" stroke-linejoin="round"><path d="M12 13v0h-.01c.27-.01.5.22.5.49v0 0c0 .09-.08.16-.17.16h-.67l-.01-.001c-.1-.01-.17-.08-.17-.17v0l0-.01c0-.28.22-.5.5-.5Z" transform="translate(24 26.6667) skewX(-.00058)"/><path d="M18 13l0 0c0 .55.44.99 1 .99v0l-.01-.001c1.1 0 2-.9 2-2v-3 0c0-1.66-1.35-3-3-3h-.42"/><path d="M8.05 17.85L7 21"/><path d="M15.95 17.85L17 21"/><path d="M6.417 6h-.42l-.01 0c-1.66 0-3 1.34-3 3v3l0 0c0 1.1.89 1.99 2 1.99h-.01l-.01-.001c.55 0 1-.45 1-1"/><path d="M14 17.82v.67 0c0 .82-.68 1.5-1.5 1.5h-1 -.01c-.83-.01-1.5-.68-1.5-1.5v-.68"/><path d="M12 13.66v1.33 0c0 1.65-1.35 3-3 3v0l-.01-.001c-1.66-.01-3-1.35-3-3v-7l0 0c-.01-2.77 2.23-5.01 4.99-5.01h2l-.01 0c2.76-.01 5 2.23 5 4.99v7 0c0 1.65-1.35 3-3 3v0l-.01-.001c-1.66-.01-3-1.35-3-3Z"/><path d="M14.25 9.5l-.01 0c-.01.13-.12.24-.26.24 -.14-.01-.25-.12-.25-.26s.11-.25.24-.25l-.01 0c.13-.01.25.11.25.24 0 0 0 0 0 0"/><path d="M10.25 9.5l-.01 0c-.01.13-.12.24-.26.24 -.14-.01-.25-.12-.25-.26s.11-.25.24-.25l-.01 0c.13-.01.25.11.25.24 0 0 0 0 0 0"/></g><path fill="none" d="M0 0h24v24H0Z"/></svg>