<svg viewBox="0 0 24 24" xmlns="http://www.w3.org/2000/svg"><path fill="none" stroke="#323232" stroke-linecap="round" stroke-linejoin="round" stroke-width="1.5" d="M10.85 13.14c-1.17-1.17-2.06-2.48-2.638-3.81 -.13-.29-.06-.61.16-.827l.81-.82c.67-.68.67-1.62.08-2.21l-1.18-1.18c-.79-.79-2.05-.79-2.83 0l-.66.65c-.75.74-1.05 1.81-.85 2.87 .49 2.61 2.012 5.474 4.461 7.923 2.449 2.44 5.31 3.96 7.92 4.46 1.06.2 2.12-.11 2.87-.85l.65-.66c.78-.79.78-2.05 0-2.83l-1.18-1.173c-.59-.59-1.54-.59-2.13 0l-.91.9c-.22.21-.55.29-.827.16 -1.33-.59-2.64-1.47-3.81-2.64Z"/><path fill="none" d="M0 0h24v24H0Z"/></svg>