<svg viewBox="0 0 24 24" xmlns="http://www.w3.org/2000/svg"><g fill="none"><path d="M0 0h24v24H0Z"/><g stroke-linecap="round" stroke-width="1.5" stroke="#323232" fill="none" stroke-linejoin="round"><path d="M13 20h7.16l0-.001c.52-.01.95-.4.99-.92l.83-10 0-.01c.04-.56-.37-1.04-.92-1.08 -.03-.01-.06-.01-.09-.01h-12"/><path d="M11.59 17h-8.2 -.01c-.48-.01-.89.33-.99.8l-.4 2 0-.01c-.11.54.24 1.06.78 1.17 .06.01.13.01.19.01h8.99l0 0c.55 0 1-.45 1-1 0-.07-.01-.14-.02-.2l-.4-2 -.01-.01c-.1-.47-.51-.81-.99-.81Z"/><path d="M19 8V6.93v0c0-1.94-1.57-3.5-3.5-3.5v0l-.01 0c-1.94 0-3.5 1.56-3.5 3.5v1.06"/><path d="M7.5 2v0l-.01 0c.82-.01 1.5.67 1.5 1.5v13 0c0 .27-.23.5-.5.5h-2 -.01c-.28-.01-.5-.23-.5-.51v-13l0 0c-.01-.83.67-1.51 1.49-1.51Z"/></g></g></svg>